# xmcd
# 
# Track frame offsets:
#     150
#     26031
#     40854
#     61039
#     73527
#     91007
#     103239
#     123987
#     141621
#     161695
#     205140
#     256517
# 
# Disc length: 4374
# 
# Revision: 2
# Processed by: cddbd v1.5.2PL0 Copyright (c) Steve Scherf et al.
# Submitted via: fre:ac v1.0.31
# 
DISCID=a111140c
DTITLE=Yo La Tengo - Popular Songs
DYEAR=2009
DGENRE=Indie/Alternative
TTITLE0=Here to Fall
TTITLE1=Avalon or Someone Very Similiar
TTITLE2=By Two's
TTITLE3=Nothing to Hide
TTITLE4=Periodically Double or Triple
TTITLE5=If It's True
TTITLE6=I'm on My Way
TTITLE7=When It's Dark
TTITLE8=All Your Secrets
TTITLE9=More Stars Than There Are in Heaven
TTITLE10=The Fireside
TTITLE11=And the Glitter Is Gone
EXTD=YEAR: 2009
EXTT0=
EXTT1=
EXTT2=
EXTT3=
EXTT4=
EXTT5=
EXTT6=
EXTT7=
EXTT8=
EXTT9=
EXTT10=
EXTT11=
PLAYORDER=
